<mxfile host="Electron" agent="Mozilla/5.0 (Macintosh; Intel Mac OS X 10_15_7) AppleWebKit/537.36 (KHTML, like Gecko) draw.io/27.0.2 Chrome/134.0.6998.205 Electron/35.3.0 Safari/537.36" version="27.0.2">
  <diagram name="Page-1" id="Lx2VfgLbjepz8URzrgvg">
    <mxGraphModel dx="1186" dy="750" grid="0" gridSize="10" guides="1" tooltips="1" connect="1" arrows="1" fold="1" page="1" pageScale="1" pageWidth="850" pageHeight="1100" math="0" shadow="0">
      <root>
        <mxCell id="0" />
        <mxCell id="1" parent="0" />
        <mxCell id="y1Wxlwc46382CsScxCv4-1" value="reminder" style="shape=umlFrame;whiteSpace=wrap;html=1;pointerEvents=0;labelBackgroundColor=none;fillColor=#FAE5C7;strokeColor=#0F8B8D;fontColor=#143642;sketch=1;curveFitting=1;jiggle=2;" parent="1" vertex="1">
          <mxGeometry x="152" y="62" width="552" height="730" as="geometry" />
        </mxCell>
        <mxCell id="y1Wxlwc46382CsScxCv4-7" style="rounded=0;orthogonalLoop=1;jettySize=auto;html=1;exitX=1;exitY=0.3333333333333333;exitDx=0;exitDy=0;exitPerimeter=0;entryX=0;entryY=0.5;entryDx=0;entryDy=0;strokeColor=#A8201A;fontColor=#143642;fillColor=#FAE5C7;endArrow=none;startFill=0;sketch=1;curveFitting=1;jiggle=2;" parent="1" source="y1Wxlwc46382CsScxCv4-2" target="y1Wxlwc46382CsScxCv4-3" edge="1">
          <mxGeometry relative="1" as="geometry" />
        </mxCell>
        <mxCell id="y1Wxlwc46382CsScxCv4-8" style="edgeStyle=none;shape=connector;rounded=0;orthogonalLoop=1;jettySize=auto;html=1;exitX=1;exitY=0.3333333333333333;exitDx=0;exitDy=0;exitPerimeter=0;entryX=0;entryY=0.5;entryDx=0;entryDy=0;strokeColor=#A8201A;align=center;verticalAlign=middle;fontFamily=Helvetica;fontSize=11;fontColor=#143642;labelBackgroundColor=default;startFill=0;endArrow=none;fillColor=#FAE5C7;sketch=1;curveFitting=1;jiggle=2;" parent="1" source="y1Wxlwc46382CsScxCv4-2" target="y1Wxlwc46382CsScxCv4-4" edge="1">
          <mxGeometry relative="1" as="geometry" />
        </mxCell>
        <mxCell id="y1Wxlwc46382CsScxCv4-14" style="edgeStyle=none;shape=connector;rounded=0;orthogonalLoop=1;jettySize=auto;html=1;exitX=1;exitY=0.3333333333333333;exitDx=0;exitDy=0;exitPerimeter=0;entryX=0;entryY=0.5;entryDx=0;entryDy=0;strokeColor=#A8201A;align=center;verticalAlign=middle;fontFamily=Helvetica;fontSize=11;fontColor=#143642;labelBackgroundColor=default;startFill=0;endArrow=none;fillColor=#FAE5C7;sketch=1;curveFitting=1;jiggle=2;" parent="1" source="y1Wxlwc46382CsScxCv4-2" target="y1Wxlwc46382CsScxCv4-13" edge="1">
          <mxGeometry relative="1" as="geometry" />
        </mxCell>
        <mxCell id="y1Wxlwc46382CsScxCv4-2" value="patient" style="shape=umlActor;verticalLabelPosition=bottom;verticalAlign=top;html=1;labelBackgroundColor=none;fillColor=#FAE5C7;strokeColor=#0F8B8D;fontColor=#143642;sketch=1;curveFitting=1;jiggle=2;" parent="1" vertex="1">
          <mxGeometry x="62" y="204" width="30" height="60" as="geometry" />
        </mxCell>
        <mxCell id="y1Wxlwc46382CsScxCv4-3" value="add reminder drug" style="ellipse;whiteSpace=wrap;html=1;labelBackgroundColor=none;fillColor=#FAE5C7;strokeColor=#0F8B8D;fontColor=#143642;sketch=1;curveFitting=1;jiggle=2;" parent="1" vertex="1">
          <mxGeometry x="219" y="78" width="140" height="70" as="geometry" />
        </mxCell>
        <mxCell id="y1Wxlwc46382CsScxCv4-4" value="show all reminders drug" style="ellipse;whiteSpace=wrap;html=1;labelBackgroundColor=none;fillColor=#FAE5C7;strokeColor=#0F8B8D;fontColor=#143642;sketch=1;curveFitting=1;jiggle=2;" parent="1" vertex="1">
          <mxGeometry x="223" y="382" width="140" height="70" as="geometry" />
        </mxCell>
        <mxCell id="y1Wxlwc46382CsScxCv4-5" value="automatic config by enter time of firs use" style="ellipse;whiteSpace=wrap;html=1;labelBackgroundColor=none;fillColor=#FAE5C7;strokeColor=#0F8B8D;fontColor=#143642;sketch=1;curveFitting=1;jiggle=2;" parent="1" vertex="1">
          <mxGeometry x="491" y="170" width="140" height="70" as="geometry" />
        </mxCell>
        <mxCell id="y1Wxlwc46382CsScxCv4-6" value="Include" style="endArrow=block;endSize=16;endFill=0;html=1;rounded=0;exitX=1;exitY=0.5;exitDx=0;exitDy=0;entryX=0;entryY=0.5;entryDx=0;entryDy=0;labelBackgroundColor=none;strokeColor=#A8201A;fontColor=default;sketch=1;curveFitting=1;jiggle=2;" parent="1" source="y1Wxlwc46382CsScxCv4-3" target="y1Wxlwc46382CsScxCv4-5" edge="1">
          <mxGeometry width="160" relative="1" as="geometry">
            <mxPoint x="327" y="189.5" as="sourcePoint" />
            <mxPoint x="487" y="189.5" as="targetPoint" />
          </mxGeometry>
        </mxCell>
        <mxCell id="y1Wxlwc46382CsScxCv4-9" value="edit reminder" style="ellipse;whiteSpace=wrap;html=1;strokeColor=#0F8B8D;fontFamily=Helvetica;fontSize=11;fontColor=#143642;labelBackgroundColor=default;fillColor=#FAE5C7;sketch=1;curveFitting=1;jiggle=2;" parent="1" vertex="1">
          <mxGeometry x="408" y="284" width="140" height="70" as="geometry" />
        </mxCell>
        <mxCell id="y1Wxlwc46382CsScxCv4-10" value="delete reminder" style="ellipse;whiteSpace=wrap;html=1;strokeColor=#0F8B8D;fontFamily=Helvetica;fontSize=11;fontColor=#143642;labelBackgroundColor=default;fillColor=#FAE5C7;sketch=1;curveFitting=1;jiggle=2;" parent="1" vertex="1">
          <mxGeometry x="408" y="469" width="140" height="70" as="geometry" />
        </mxCell>
        <mxCell id="y1Wxlwc46382CsScxCv4-11" value="Extends" style="endArrow=block;endSize=16;endFill=0;html=1;rounded=0;strokeColor=#A8201A;align=center;verticalAlign=middle;fontFamily=Helvetica;fontSize=11;fontColor=#143642;labelBackgroundColor=default;fillColor=#FAE5C7;exitX=0;exitY=0.5;exitDx=0;exitDy=0;entryX=1;entryY=0;entryDx=0;entryDy=0;sketch=1;curveFitting=1;jiggle=2;" parent="1" source="y1Wxlwc46382CsScxCv4-9" target="y1Wxlwc46382CsScxCv4-4" edge="1">
          <mxGeometry width="160" relative="1" as="geometry">
            <mxPoint x="505" y="453" as="sourcePoint" />
            <mxPoint x="345" y="453" as="targetPoint" />
          </mxGeometry>
        </mxCell>
        <mxCell id="y1Wxlwc46382CsScxCv4-12" value="Extends" style="endArrow=block;endSize=16;endFill=0;html=1;rounded=0;strokeColor=#A8201A;align=center;verticalAlign=middle;fontFamily=Helvetica;fontSize=11;fontColor=#143642;labelBackgroundColor=default;fillColor=#FAE5C7;exitX=0;exitY=0.5;exitDx=0;exitDy=0;entryX=1;entryY=1;entryDx=0;entryDy=0;sketch=1;curveFitting=1;jiggle=2;" parent="1" source="y1Wxlwc46382CsScxCv4-10" target="y1Wxlwc46382CsScxCv4-4" edge="1">
          <mxGeometry width="160" relative="1" as="geometry">
            <mxPoint x="505" y="453" as="sourcePoint" />
            <mxPoint x="345" y="453" as="targetPoint" />
          </mxGeometry>
        </mxCell>
        <mxCell id="y1Wxlwc46382CsScxCv4-13" value="show notification for use drug" style="ellipse;whiteSpace=wrap;html=1;strokeColor=#0F8B8D;fontFamily=Helvetica;fontSize=11;fontColor=#143642;labelBackgroundColor=default;fillColor=#FAE5C7;sketch=1;curveFitting=1;jiggle=2;" parent="1" vertex="1">
          <mxGeometry x="223" y="636" width="140" height="70" as="geometry" />
        </mxCell>
        <mxCell id="y1Wxlwc46382CsScxCv4-15" value="Extends" style="endArrow=block;endSize=16;endFill=0;html=1;rounded=0;strokeColor=#A8201A;align=center;verticalAlign=middle;fontFamily=Helvetica;fontSize=11;fontColor=#143642;labelBackgroundColor=default;fillColor=#FAE5C7;entryX=1;entryY=0.5;entryDx=0;entryDy=0;exitX=0;exitY=0.5;exitDx=0;exitDy=0;sketch=1;curveFitting=1;jiggle=2;" parent="1" source="y1Wxlwc46382CsScxCv4-16" target="y1Wxlwc46382CsScxCv4-13" edge="1">
          <mxGeometry width="160" relative="1" as="geometry">
            <mxPoint x="553" y="684" as="sourcePoint" />
            <mxPoint x="393" y="684" as="targetPoint" />
          </mxGeometry>
        </mxCell>
        <mxCell id="y1Wxlwc46382CsScxCv4-16" value="accept(i ate)" style="ellipse;whiteSpace=wrap;html=1;strokeColor=#0F8B8D;fontFamily=Helvetica;fontSize=11;fontColor=#143642;labelBackgroundColor=default;fillColor=#FAE5C7;sketch=1;curveFitting=1;jiggle=2;" parent="1" vertex="1">
          <mxGeometry x="470" y="570" width="140" height="70" as="geometry" />
        </mxCell>
        <mxCell id="y1Wxlwc46382CsScxCv4-17" value="reminder again" style="ellipse;whiteSpace=wrap;html=1;strokeColor=#0F8B8D;fontFamily=Helvetica;fontSize=11;fontColor=#143642;labelBackgroundColor=default;fillColor=#FAE5C7;sketch=1;curveFitting=1;jiggle=2;" parent="1" vertex="1">
          <mxGeometry x="470" y="686" width="140" height="70" as="geometry" />
        </mxCell>
        <mxCell id="y1Wxlwc46382CsScxCv4-18" value="Include" style="endArrow=block;endSize=16;endFill=0;html=1;rounded=0;exitX=0.979;exitY=0.657;exitDx=0;exitDy=0;entryX=0;entryY=0.5;entryDx=0;entryDy=0;labelBackgroundColor=none;strokeColor=#A8201A;fontColor=default;exitPerimeter=0;sketch=1;curveFitting=1;jiggle=2;" parent="1" source="y1Wxlwc46382CsScxCv4-13" target="y1Wxlwc46382CsScxCv4-17" edge="1">
          <mxGeometry width="160" relative="1" as="geometry">
            <mxPoint x="309" y="683" as="sourcePoint" />
            <mxPoint x="441" y="775" as="targetPoint" />
          </mxGeometry>
        </mxCell>
      </root>
    </mxGraphModel>
  </diagram>
</mxfile>
